<?xml version="1.0" encoding="utf-8"?>
<!-- Generator: Adobe Illustrator 18.1.1, SVG Export Plug-In . SVG Version: 6.00 Build 0)  -->
<svg version="1.0" id="Слой_1" xmlns="http://www.w3.org/2000/svg" xmlns:xlink="http://www.w3.org/1999/xlink" x="0px" y="0px"
	 viewBox="0 0 191 196.4" enable-background="new 0 0 191 196.4" xml:space="preserve">
<g>
	<defs>
		<path id="SVGID_22_" d="M189.5,84.3c11.5,65.8-44.8,122.1-110.6,110.6c-38.8-6.8-69.4-37.4-76.2-76.2
			C-8.8,52.9,47.5-3.4,113.3,8.1C152.1,14.9,182.7,45.5,189.5,84.3z"/>
	</defs>
	<clipPath id="SVGID_1_">
		<use xlink:href="#SVGID_22_"  overflow="visible"/>
	</clipPath>
	<g clip-path="url(#SVGID_1_)">
		<path fill="#403634" d="M0.8,136.8c0-31.8,0-63.5,0-95.3c3.5-3.7,7.8-4.8,12.7-3.7c14.7,7.5,10.8,28.5,25.9,35.7
			c2.4,2.1,4.2,4.5,5.6,7.3c1,2.9,1.2,6,0.9,9c-5.2,9.5-6.7,19.2-1.7,29.4c3,17.9-2.7,35.3-2.9,53c-0.9,3.4-2.6,6.4-5,8.9
			c-4.1,3.5-8.9,5.3-14.3,5.6c-5.2-0.1-9.9-1.6-13.9-5C-2.4,168.1,11.6,150.4,0.8,136.8z"/>
		<path fill="#49465E" d="M205,177.6c5.1,23.3-3.7,30.7-27.3,27.7c-20.1-2.5-40.8-0.5-61.2-0.5c-4.2-6.2-2.6-12.1,0.9-17.9
			c5.6-7.7,12.5-14.3,17.5-22.5c4-5.3,8.4-9.9,15.1-11.7c3.2-0.5,6.5-0.3,9.7,0.5c9.5,5.4,18.2,12.7,29.6,14.2
			C195.9,168.7,200.5,173.1,205,177.6z"/>
		<path fill="#A7664C" d="M96.1,204.8c-2.3,0-4.5,0-6.8,0C81.2,194.1,69.1,188,59.6,179c-9.8-15-13.8-30.3-3.4-46.7
			c5.5-6.5,12.4-7,19.9-4.6c10.2,6.2,21.2,11.4,29.6,20.4c4.8,8.1,1.2,16.5,1,24.8c-0.5,6.6-0.3,13.3-1.8,19.9
			C102.9,197.5,99.5,201.2,96.1,204.8z"/>
		<path fill="#2B2839" d="M34.8,177.5c0-2,0-4,0-6c14.9-13.7,22.2-1.4,30.1,8.8c6.8,7.3,9.2,15.3,3.9,24.6c-15.9,0-31.8,0-47.6,0
			C13.9,189.8,28.4,185.7,34.8,177.5z"/>
		<path fill="#BBBBC7" d="M205,130c0,6.8,0,13.6,0,20.4c-2.2,2.2-4.7,3.8-7.7,4.8c-11.3,0.1-21.4-4.2-31.3-9.1
			c-4.1-3.3-6.9-7.5-8.2-12.7c1.7-27.6,15.1-34.2,39.2-22.1C202.7,116.2,199.8,124.8,205,130z"/>
		<path fill="#80787A" d="M205,130c-2.5-4.4-5-8.8-7.5-13.2c-9.6-13.7-45.4-2.1-34.4-35.7c5.4-5.9,12.2-7.8,19.9-7
			c9.5,1.9,15.5,8.8,22.1,15.1C205,102.7,205,116.3,205,130z"/>
		<path fill="#CB9179" d="M68.9,204.8c-2.6-6.8-5.1-13.5-7.7-20.3c-1.6-6.5,1.6-9,7.6-9.2c18.9,1.4,21.9,13.9,20.6,29.4
			C82.5,204.8,75.7,204.8,68.9,204.8z"/>
		<path fill="#69595C" d="M75.7,0.6c4.5,0,9.1,0,13.6,0c5.1,5.4,9,11.2,8.1,19.2c-0.6,3.7-2.1,7-4.2,10c-2.5,2.7-5.5,4.7-9,6
			c-7.2,1.7-14.2,1.5-20.7-2.4c-2.8-2.1-4.9-4.8-6.1-8.1c-1.6-7.1,0.5-13,6-17.7C67.2,4.8,72.2,4,75.7,0.6z"/>
		<path fill="#605643" d="M191.4,0.6c4.3,2.8,14.3-6.6,13.7,6.8c-0.5,11.3-0.1,22.7-0.1,34c-5,4.3-10.4,4.4-16,1.2
			c-2.9-2.7-4.9-6-6.1-9.8C180.5,20.8,182,9.7,191.4,0.6z"/>
		<path fill="#332B29" d="M14.4,41.4c-4.5,0-9.1,0-13.6,0c4-13.3-8-29.3,6.8-40.8c11.9,6.6,23.3,13.5,16.3,30.3
			C22.3,35.8,19.3,39.5,14.4,41.4z"/>
		<path fill="#2F2A3F" d="M34.8,177.5c-0.5,11.1-8.8,18.3-13.6,27.3c-6.5-3.3-17.7,7.8-20.4-6.8c4.8-8.8,11.3-15.9,20.6-20.2
			C25.9,177.7,30.4,177.6,34.8,177.5z"/>
		<path fill="#8C896E" d="M191.4,0.6c0.4,11.4,0.7,22.7,1.1,34.1c-2.9,2.6-6.3,3.4-10.1,2.3c-11.7-6-15-15.4-11.2-27.6
			c1.9-3.1,4.1-6,6.6-8.8C182.3,0.6,186.9,0.6,191.4,0.6z"/>
		<path fill="#A7A190" d="M205,89.1c-7.7,0.4-15.2,0.3-20.5-6.7c-3.9-4.2-4.3-9-2.1-14.1c2.4-2.6,5.3-4.3,8.7-5
			c5.5-0.3,10,1.8,13.9,5.5C205,75.5,205,82.3,205,89.1z"/>
		<path fill="#221F1F" d="M0.8,136.8c18,11,3.1,27.6,7.1,41c1.5,6.3-0.7,8.8-7.1,6.6C0.8,168.5,0.8,152.6,0.8,136.8z"/>
		<path fill="#7E7375" d="M198.3,150.4c2.2-0.2,4.5-0.2,6.7-0.1c0,9.1,0,18.1,0,27.2c-6.7-0.2-13.5-0.3-20.2-0.5
			c-3.9-3.4-5.1-7.6-4.2-12.6C183.1,155.6,192.1,154.8,198.3,150.4z"/>
		<path fill="#574A3D" d="M205,68.7c-4.2-0.5-8.4-1.1-12.6-1.6c-8.1-8.9-9.8-17.5,1.4-25.3c3.7-0.1,7.4-0.2,11.1-0.3
			C205,50.5,205,59.6,205,68.7z"/>
		<path fill="#5E504E" d="M21.2,0.6c9.1,0,18.1,0,27.2,0c2.3,2.6,3.5,5.6,3.4,9.1c-2.1,7.6-7.6,10.7-14.9,11.3
			c-3.4-0.3-6.5-1.3-9.5-3C23.8,12.8,17.8,8.4,21.2,0.6z"/>
		<path fill="#A7A0A6" d="M96.1,0.6c11.3,0,22.7,0,34,0c4,4.6,4.2,9.6,1.4,14.9c-8.1,7.4-16.7,5.4-25.4,1.5
			C99.5,13.6,93.5,9.8,96.1,0.6z"/>
		<path fill="#665C51" d="M177.8,0.6c0,2.4,0,4.7,0,7.1c-3.1,3.7-4.7,8.7-9.4,11.2c-11.1,3.7-19.7-0.1-26.4-9.1
			c-1.1-3.4-0.7-6.4,1.7-9.2C155.1,0.6,166.4,0.6,177.8,0.6z"/>
		<path fill="#413636" d="M21.2,0.6c2.3,4.5,4.6,9,6.9,13.5C33.4,28.2,29,33,14.6,28c6.4-11.4-2.2-18.9-7-27.4
			C12.2,0.6,16.7,0.6,21.2,0.6z"/>
		<path fill="#E9E3E0" d="M96.1,204.8c0.4-4.1,0.8-8.1,1.2-12.2c4.7-8.4,11.7-10.4,20.5-7.3c2.9,1.6,4.9,4,6.2,7.1
			c-2.5,4.1-5,8.3-7.6,12.4C109.7,204.8,102.9,204.8,96.1,204.8z"/>
		<path fill="#898184" d="M143.7,0.6c0.2,2.1,0.4,4.3,0.5,6.4c4.5,9,2.2,16.2-5.6,21.9c-5.8,1.5-9.4-1-11.6-6.3
			c-0.3-3.4,0.6-6.4,2.9-9c0.1-4.4,0.1-8.7,0.2-13.1C134.7,0.6,139.2,0.6,143.7,0.6z"/>
		<path fill="#7C6C71" d="M96.1,0.6c4.2,2.6,8.4,5.1,12.6,7.7c3.9,10.6-3.3,13.6-11.2,16.2c-3.2-0.1-5.9-1.3-8.1-3.7
			c-0.1-6.7-0.1-13.5-0.2-20.2C91.6,0.6,93.8,0.6,96.1,0.6z"/>
		<path fill="#363246" d="M0.8,184.4c2.4-2.2,4.7-4.4,7.1-6.6c4.5,0,9,0,13.5,0.1c-5,8.6-11.7,15.5-20.6,20.2
			C0.8,193.5,0.8,188.9,0.8,184.4z"/>
		<path fill="#4A3D3B" d="M48.7,7c0-2.1-0.1-4.2-0.2-6.4c9.1,0,18.1,0,27.2,0c-2.3,2.5-4.7,5.1-7,7.6C61.7,12,54.9,14,48.7,7z"/>
		<path fill="#705955" d="M68.7,175.4c-2.5,3.1-5,6.1-7.6,9.2c-7-8-13.5-16.8-26.3-13.1c-15-18.3,0.5-36.2,0.9-54.3
			c7.1-6.5,14.1-3.9,21,0.4c3.6,3.3,5.6,7.3,5.3,12.2C63,145.2,58.5,161.4,68.7,175.4z"/>
		<path fill="#51403C" d="M14.6,28c7.8-1.4,12.3-6.1,13.5-13.9c2.2,0.1,4.5,0.1,6.7,0.1c15.3,10.6,9.9,24.1,5.5,37.5
			c-1.1,10.3,5.1,21.9-5.5,30.5c-21.2-6.4-19.7-24.2-20.5-40.9C14.5,37,14.6,32.5,14.6,28z"/>
		<path fill="#3E3331" d="M54.6,122.7c-6.3-1.8-12.6-3.7-18.9-5.5c-11.9-11.5-19.7-22.3,4.5-28c4.8-0.4,9.1,0.9,12.7,4.1
			c2.1,2.3,3.6,5,4.6,7.9C59.2,108.7,61.9,116.4,54.6,122.7z"/>
		<path fill="#7D625B" d="M47.3,96.4c-2.4-2.4-4.7-4.8-7.1-7.2c0.5-2.2,0.7-4.4,0.6-6.6c-3.3-9.5-6.6-19,6.9-23.7
			c9.8,0.4,13.7,6.8,15.5,15.3C63.4,85.6,59.4,94,47.3,96.4z"/>
		<path fill="#564A48" d="M48.5,61.6c-6.5,5.6-6.6,13.5-7.6,21c-2-0.1-4-0.2-6-0.3c-2.2-11.4-4.4-22.8-6.6-34.2
			c5.4-3.9,11-3.7,16.7-0.8c2.5,1.7,4.4,3.9,5.9,6.5C51.5,56.8,50.8,59.5,48.5,61.6z"/>
		<path fill="#96949E" d="M164.6,136.4c2.3,2.2,4.6,4.5,6.9,6.7c4.6,3.6,5.3,8.5,4.4,13.8c-5.9,12.3-12.4,8.8-18.9,0.5l-3.1-0.1
			l-3.1,0.2c-11.9,2.6-16.6-4.8-19.8-14.3c-0.6-5.8,0.8-11,4.8-15.4C148.5,120.3,156.7,128,164.6,136.4z"/>
		<path fill="#D4B0A4" d="M137.4,143.4c4.5,4.7,9,9.4,13.5,14.2c-2.7,4.5-5.4,9-8.2,13.5c-5.3,3.7-10.5,4.1-15.7-0.2
			c-6.6-8.9-6.7-17.7,0-26.6C130.2,141.3,133.7,141,137.4,143.4z"/>
		<path fill="#726F77" d="M157,157.5c4.7,0.1,9.3,0.2,14,0.3c8-4.2,11.3,0.4,13.5,7.2c0.1,4,0.1,8.1,0.2,12.1
			C171.8,175.7,161,171.4,157,157.5z"/>
		<path fill="#F7F7F7" d="M130,170.4c4.2,0.2,8.4,0.4,12.7,0.6c-2.8,10.1-8.1,18-18.6,21.4c0,0-0.5-1.2-0.5-1.2
			c-4-3.3-5.2-7.6-4.2-12.6C121.4,173.9,124.9,171.1,130,170.4z"/>
		<path fill="#C27764" d="M54.6,122.7c-2.6-6.5-7.8-12.4-5-20.3c7-7.7,16.6-10.6,26.1-13.7c5.2-1.1,10.3-0.4,15.1,1.8
			c4.7,2.6,8.1,6.4,10.1,11.4c1.4,5,1.1,9.9-1.1,14.7c-7,8.5-13.5,17.7-25.1,20.7c-4.3-2.5-8.5-5-12.8-7.5
			C59.6,127.4,57.1,125.1,54.6,122.7z"/>
		<path fill="#D68E7B" d="M74.8,137.3c5.2-8.3,3-23.3,19.4-21.4c4.7-4,8.5-1.5,12.2,1.8c6.3,8.5,6.3,17.6,2.6,27
			c-1.5,2.8-3.8,4.9-6.7,6.4C91.3,150.2,81,147.8,74.8,137.3z"/>
		<path fill="#DDA892" d="M102.4,151.1c0.1-2.3,0.3-4.7,0.4-7c5.8-6.9,10.1-15.1,17.1-21.1c5.7-3.4,11.6-4.7,17.8-1.2
			c2,2.8,1.9,5.6,0,8.4c-0.1,4.4-0.2,8.7-0.3,13.1c-2.6,0.2-5.2,0.5-7.8,0.7c-6.3,12-4.5,30.5-24.9,31.3c-3.2-0.8-6-2.3-8.4-4.7
			C98.4,164.2,100.4,157.6,102.4,151.1z"/>
		<path fill="#CB9179" d="M96.4,170.7c2.3,0,4.6,0,6.9,0.1c4.7,7.9,18.1-11.8,19.7,6.2c0.2,4.8,0.4,9.5,0.7,14.3
			c-8.8,0.5-17.5,0.9-26.3,1.4C97,185.3,96.7,178,96.4,170.7z"/>
		<path fill="#A5A3B2" d="M137.7,130.3c-0.4-2.2-0.7-4.4-0.9-6.6c-2.2-2.2-3.6-4.9-4-8c2.7-10.4,7.8-20,11.1-30.2
			c4.3-5.4,9.7-8.1,16.7-6.2c1.3,1,2.5,2,3.8,2.9c-1.1,23.1,28.8,16.6,33.1,34.5c-17.1-3.6-32-3.7-32.9,19.7
			C155.6,134.4,146.7,132.3,137.7,130.3z"/>
		<path fill="#ADACB6" d="M184.6,165c-4.5-2.4-9-4.8-13.5-7.2c0.1-4.9,0.3-9.8,0.4-14.7c11.2-5.8,18.4,2.9,26.8,7.3
			C197.3,158.7,192.7,163.5,184.6,165z"/>
		<path fill="#81766C" d="M184.4,68.4c0,4.7,0.1,9.3,0.1,14c-6.7-0.1-13.5-0.1-20.2-0.2c0,0-1.3,0.5-1.3,0.5
			c-3.2-4.4-4.9-9.2-4.5-14.6c3.2-11.2,9.4-18.5,22.4-16.8C190.1,55.4,185.5,62.3,184.4,68.4z"/>
		<path fill="#665859" d="M47.4,55.6c-6.4-2.5-12.8-5-19.2-7.5c2.9-11.2,12.5-21,6.6-33.8c4.6-2.4,9.2-4.8,13.8-7.2
			c6.7,0.4,13.3,0.8,20,1.3c-2.3,4.4-4.5,8.7-6.8,13.1C54.4,31.6,64.1,49.2,47.4,55.6z"/>
		<path fill="#C88A7C" d="M62.5,29.3c6.6-0.4,13.2-0.8,19.7-1.2c2.4,2.3,4.1,5,5.4,8.1c0.4,8.4,2.7,16.9-1.5,25
			c-2.2,3-5,5.1-8.5,6.2C55.1,68.9,55.2,54,56.4,38.2C57.5,34.6,59.5,31.6,62.5,29.3z"/>
		<path fill="#866C6E" d="M82.1,35.1c0-2.3,0.1-4.7,0.1-7c2.3-0.3,4.6-0.5,6.9-0.8c8.8-2,17.4-3.1,25.6,2.3c6,5.6,7.7,12.1,4.3,19.7
			c-4.9,6.5-11.7,8.3-19.4,8c-3.6-0.3-7-1.5-10.1-3.4C84.1,48.7,80.2,43,82.1,35.1z"/>
		<path fill="#7C625E" d="M62.5,29.3c-0.1,1.9-0.4,3.8-0.7,5.7c-7.9,4.5,4.2,22-13.2,20.5c0,0-1.2,0.1-1.2,0.1
			c1.4-12.8-0.1-26.9,14.5-34.2C62.1,24,62.3,26.6,62.5,29.3z"/>
		<path fill="#6D5F67" d="M110,34.8c-7-2.5-13.9-5-20.9-7.5c0.1-2.1,0.2-4.3,0.3-6.4c2.3,0,4.7,0,7,0c6-4.3,12.5-4.2,19.2-1.9
			C121,26.8,116.5,31.2,110,34.8z"/>
		<path fill="#8E8860" d="M184.4,68.4c-4.6-4.5-1.3-9,0-13.5c-2.2-2.3-3.8-5-4.8-8c-0.4-5.1,1-9.3,5.5-12.2c2.4,0,4.9,0,7.3,0
			c0.5,2.4,0.9,4.7,1.4,7.1c-0.5,8.4-0.9,16.9-1.4,25.3C189.8,67.5,187.1,68,184.4,68.4z"/>
		<path fill="#9D978D" d="M185.1,34.7c-0.3,4.4-0.6,8.7-1,13.1c-7.7,7-13.4,2.4-18.9-3.3c-3.9-7-4-14.2-1.4-21.6
			c1.7-3.3,3.8-6.4,6.1-9.3c2.6-1.9,5.2-3.9,7.8-5.8C177.4,17.5,179.9,26.5,185.1,34.7z"/>
		<path fill="#8A7C82" d="M116.6,21c-6.7-0.1-13.4-0.2-20.1-0.2c4.1-4.2,8.2-8.3,12.3-12.5c7.1,1.8,14.1,3.6,21.2,5.4
			c0,2.5,0.1,5,0.1,7.4C125.5,25.2,121,25.3,116.6,21z"/>
		<path fill="#7F726F" d="M170,13.5c0,2.8,0.1,5.6,0.1,8.4c-4.2,8.2-9.7,14.4-20,13.9c-5.4-0.8-9.9-3.2-12.9-8
			c2.3-6.9,4.7-13.9,7-20.8C152.9,9.2,161.4,11.4,170,13.5z"/>
		<path fill="#8B7676" d="M137.3,27.9c4.6,0,9.1,0,13.7,0.1c6.2,4.9,14.4,6.8,19.6,13.1c4.5,2.2,9.1,4.5,13.6,6.7
			c0.1,2.4,0.2,4.8,0.3,7.2c-9.2,0.9-13.8,8.4-19.9,13.8c-12.6,0.8-21.5-10.9-34.2-10.1c-3.2-0.5-6-1.7-8.8-3.3
			c-2.5-2.1-4.2-4.7-5.2-7.8c-2.1-4.3-4.3-8.5-6.4-12.8c2.2-4.6,4.4-9.2,6.6-13.7c4.5,0,9,0.1,13.5,0.1
			C132.5,23.4,134.9,25.6,137.3,27.9z"/>
		<path fill="#DA937F" d="M75.9,96.5c-7.6,7-17.1,5.8-26.3,5.9c-0.7-2-1.5-4-2.3-6c2.9-6.8,5.7-13.6,8.6-20.4
			c4.3-3.2,8-1.3,11.7,1.3c4,4.3,6,9.6,7.9,15C75.6,93.7,75.7,95.1,75.9,96.5z"/>
		<path fill="#B06E5A" d="M62.1,80.9C60,79.2,58,77.6,55.9,76c-2.5-4.8-4.9-9.6-7.4-14.4c0.1-2,0.2-4.1,0.2-6.1
			C53,48.7,57.4,41.8,61.8,35c-0.5,14.8,1.4,27.6,21.1,26.3c10.5,0,10.7,6.8,9.7,14.5C89.2,83,83,86.2,75.7,87.7
			C69.9,87.8,65.3,85.8,62.1,80.9z"/>
		<path fill="#F4CBAC" d="M122.9,176.9c-5.7-4.8-15.5,3.4-19.7-6.2c8.8-8.9,17.6-17.8,26.4-26.7c0.1,8.8,0.3,17.5,0.4,26.3
			C127.7,172.6,125.3,174.8,122.9,176.9z"/>
		<path fill="#DFA191" d="M102.3,121.8c-2.7-1.9-5.4-3.9-8.1-5.8c0.6-4.4,1.2-8.8,1.8-13.2c-3.1-2.8-3.3-5.8-0.7-9
			c10.4-7.7,20-5.8,29.1,2.4c2.4,2.8,3.9,6.1,4.7,9.7c0.9,10.4-4.7,16.7-13.2,21.2C110.3,128,105.6,126.8,102.3,121.8z"/>
		<path fill="#EBA592" d="M96.1,95.8c0,2.3,0,4.6,0,6.9c-2.4-2.1-4.7-4.2-7.1-6.2c-5-6.8-5.6-13.5,0.7-19.9c0.6-6.4-2-11.3-6.9-15.2
			c-0.5-1.8-0.8-3.7-1-5.5c0.8-4.5,3.2-7.4,7.8-8.3c2.2,0.3,4.3,0.9,6.4,1.7c11.1,4.9,20,11.4,18.4,25.5
			C112,84.9,101.9,88.5,96.1,95.8z"/>
		<path fill="#E39D8D" d="M89.7,76.5c-0.2,6.6-0.4,13.3-0.7,19.9c-4.4,0-8.8,0-13.1,0.1l-0.4-1.9c-3.1-4.3-2.1-8.8-0.7-13.3
			C79.8,79.7,84.7,78.1,89.7,76.5z"/>
		<path fill="#F4CABD" d="M102.3,121.8c4.6,0.2,9.2,0.4,13.8,0.6c6.6-1.3,9.1,1.2,7.3,7.7c-4.2,8.7-10.9,13.6-20.7,14
			C97.6,136.7,103.1,129.2,102.3,121.8z"/>
		<path fill="#F3BAA6" d="M123.4,130.1c-2.4-2.6-4.8-5.1-7.3-7.7c2.2-6.2,4.4-12.4,6.6-18.5c12.3-3.6,16,2.1,14.8,13.4
			c0,2.2-0.3,4.3-0.8,6.4C132.3,125.9,127.9,128,123.4,130.1z"/>
		<path fill="#AA928F" d="M128.5,50.1c16-1.6,32.1-3.2,36.1,18.7c-0.5,4.6-1,9.3-1.5,13.9c-4.1,1.9-8.1,3.8-12.2,5.8
			c-4.8,5.8-10.9,7.3-18,5.2c-3-1.5-5.3-3.7-6.9-6.6C124.1,74.6,126.5,62.4,128.5,50.1z"/>
		<path fill="#EFC8B9" d="M131.3,87.7c6.5,0.3,13.1,0.5,19.6,0.8c0.4,11.8-2.1,22.4-13.4,28.8c-3.3-6.3-7.5-11.5-14.8-13.4
			c0,0,0.2-0.8,0.2-0.8C120.5,95.1,123.8,90.3,131.3,87.7z"/>
		<path fill="#F2AFA3" d="M89.6,47.5c-2.6,2.8-5.2,5.5-7.8,8.3c-6.9-7-6.8-13.9,0.4-20.7C84.6,39.2,87.1,43.4,89.6,47.5z"/>
		<path fill="#C79287" d="M110,73.8c-4.7-8.2-9.3-16.4-14-24.6c6.8-0.5,13.6-1,20.4-1.6c2.8,0.8,5.7,1.7,8.6,2.5
			c2.2,9.9,3,19.5-6.7,26.4C114.8,77.6,112.1,76.6,110,73.8z"/>
		<path fill="#625654" d="M170.6,41c-9.4-0.1-16.1-4.2-19.6-13.1c6.4-2,12.8-4,19.2-6C170.3,28.3,170.4,34.7,170.6,41z"/>
		<path fill="#F0D5C8" d="M117.8,77.5c0.6-9.6,1.2-19.2,7.1-27.4c1.2-0.2,2.4-0.2,3.6,0c13.8,9.9,12,20.9,2.4,32.5
			C124.4,86.6,118.9,87.7,117.8,77.5z"/>
		<path fill="#F1B0A3" d="M74.8,81.3c4.7,4.2,3.5,8.7,0.7,13.3c-9.3,0.1-12.9-5.4-13.4-13.8C66.4,81,70.6,81.2,74.8,81.3z"/>
		<path fill="#F2D9CB" d="M117.8,77.5c4.4,1.7,8.8,3.4,13.1,5.1c0,1.7,0.1,3.4,0.3,5.1c-2.8,5.1-5.6,10.3-8.3,15.4
			c-9-2.4-17.9-4.9-26.8-7.3c-1.5-11.2,2.1-19.2,13.9-22C112.6,75,115.2,76.3,117.8,77.5z"/>
	</g>
</g>
</svg>
